<?xml version="1.0" standalone="yes"?>
<svg xmlns="http://www.w3.org/2000/svg" width="500" height="500">
<path style="fill:#1b1b1b; stroke:none;" d="M0 0L0 500L500 500L500 0L0 0z"/>
<path style="fill:#497259; stroke:none;" d="M382 125L382 126L387 126L382 125z"/>
<path style="fill:#e3f953; stroke:none;" d="M375 192C375.234 180.682 376.91 166.563 385.105 158.044C398.966 143.634 408.448 164.488 407.96 177C407.361 192.342 398.606 206.079 385 213.215C380.621 215.512 369.874 216.853 367.028 220.589C361.987 227.204 368.658 247.44 369.92 255C370.394 257.838 370.431 262.928 373.433 264.393C376.416 265.848 380.848 264.178 384 264.039C393.189 263.636 401.981 262.86 411 261C411 252.944 407.678 233.866 413.603 227.564C417.466 223.455 427.775 222.488 433 220.135C447.458 213.623 460.35 201.298 462.7 185C471.223 125.878 385.986 111.19 348 138.043C337.389 145.544 331.213 157.542 328.425 170C327.609 173.648 325.501 179.935 328.603 183.006C337.993 192.3 362.776 192 375 192z"/>
<path style="fill:#497259; stroke:none;" d="M403 125L403 126L408 126L403 125M375 126L375 127L378 127L375 126M411 126L411 127L414 127L411 126M370.667 127.333L371.333 127.667L370.667 127.333M417.667 127.333L418.333 127.667L417.667 127.333M367.667 128.333L368.333 128.667L367.667 128.333M420.667 128.333L421.333 128.667L420.667 128.333M364 129L365 130L364 129M424 129L425 130L424 129M361 130L362 131L361 130M426.667 130.333L427.333 130.667L426.667 130.333M359 131L360 132L359 131M429 131L430 132L429 131M357 132L358 133L357 132M431 132L432 133L431 132M355 133L356 134L355 133M433 133L434 134L433 133M353 134L354 135L353 134M435 134L436 135L435 134M351 135L352 136L351 135M437 135L438 136L437 135M350 136L351 137L350 136M348 137L349 138L348 137M440 137L441 138L440 137M347 138L348 139L347 138M443 139L444 140L443 139M444 140L445 141L444 140M342 142L343 143L342 142M447 142L448 143L447 142M341 143L342 144L341 143M448 143L449 144L448 143M449 144L450 145L449 144M450 145L451 146L450 145M451 146L452 147L451 146M338 147L339 148L338 147M452 147L453 148L452 147M337 148L338 149L337 148M453 148L454 149L453 148M335 151L336 152L335 151M455 151L456 152L455 151M456 152L457 153L456 152M334 153L335 154L334 153M390.667 153.333L391.333 153.667L390.667 153.333M398 153L399 154L398 153M388 154L389 155L388 154M457 154L458 155L457 154M333 155L334 156L333 155M401 155L402 156L401 155M402 156L403 157L402 156M458 156L459 157L458 156M332 157L333 158L332 157M403 157L404 158L403 157M459 158L460 159L459 158M331 159L332 160L331 159M404 159L405 160L404 159M382 160L383 161L382 160M460 160L461 161L460 160M330.333 161.667L330.667 162.333L330.333 161.667M405 161L406 162L405 161M381 162L382 163L381 162M461.333 162.667L461.667 163.333L461.333 162.667M329.333 164.667L329.667 165.333L329.333 164.667M380 164L381 165L380 164M406 164L407 165L406 164M462 165L462 168L463 168L462 165M379 166L380 167L379 166M328.333 168.667L328.667 169.333L328.333 168.667M378 169L379 170L378 169M407 169L407 182L408 182L407 169M463 171L463 182L464 182L463 171M377.333 172.667L377.667 173.333L377.333 172.667M327.333 173.667L327.667 174.333L327.333 173.667M131 176L131 177L141 177L131 176M127 177L128 178L127 177z"/>
<path style="fill:#fafafa; stroke:none;" d="M122 202L116 200C113.508 208.452 120.046 211.349 121.532 219C123.749 230.419 122.081 243.349 123 255L136 254L133.148 217.004L138 200L130 203C129.417 200.722 128.711 198.377 128.769 195.998C129.283 174.639 161.071 193.796 169.895 193.303C173.252 193.116 174.201 189.658 175 187C161.76 180.807 147.71 176.578 133 177.015C123.517 177.297 116.192 184.073 118.394 194C119.03 196.869 120.652 199.424 122 202z"/>
<path style="fill:#497259; stroke:none;" d="M145 177L145 178L148 178L145 177M376 177L376 180L377 180L376 177M124 178L125 179L124 178z"/>
<path style="fill:#e3f953; stroke:none;" d="M125 178L126 179L125 178z"/>
<path style="fill:#497259; stroke:none;" d="M150.667 178.333L151.333 178.667L150.667 178.333z"/>
<path style="fill:#e3f953; stroke:none;" d="M123 179L124 180L123 179z"/>
<path style="fill:#497259; stroke:none;" d="M154.667 179.333L155.333 179.667L154.667 179.333M121 180L122 181L121 180M158 180L159 181L158 180M326 180L326 183L327 183L326 180M120 181L121 182L120 181M161 181L162 182L161 181M164 182L165 183L164 182z"/>
<path style="fill:#e3f953; stroke:none;" d="M119 183L120 184L119 183M166 183L167 184L166 183z"/>
<path style="fill:#497259; stroke:none;" d="M167 183L168 184L167 183M328 183L329 184L328 183M118 184L119 185L118 184M169 184L170 185L169 184M330 184L331 185L330 184z"/>
<path style="fill:#e3f953; stroke:none;" d="M118 185L119 186L118 185M171 185L172 186L171 185z"/>
<path style="fill:#497259; stroke:none;" d="M172 185L173 186L172 185M333 185L334 186L333 185M375 185L375 192L376 192L375 185z"/>
<path style="fill:#e3f953; stroke:none;" d="M136 186L137 187L136 186z"/>
<path style="fill:#497259; stroke:none;" d="M137 186L137 187L144 187L137 186z"/>
<path style="fill:#e3f953; stroke:none;" d="M144 186L145 187L144 186z"/>
<path style="fill:#497259; stroke:none;" d="M174 186L175 187L174 186M335 186L336 187L335 186M406.333 186.667L406.667 187.333L406.333 186.667M462.333 186.667L462.667 187.333L462.333 186.667M117 187L117 193L118 193L117 187M133 187L134 188L133 187M149.667 187.333L150.333 187.667L149.667 187.333z"/>
<path style="fill:#e3f953; stroke:none;" d="M151 187L152 188L151 187z"/>
<path style="fill:#497259; stroke:none;" d="M338.667 187.333L339.333 187.667L338.667 187.333M131 188L132 189L131 188M154 188L155 189L154 188z"/>
<path style="fill:#e3f953; stroke:none;" d="M155 188L156 189L155 188z"/>
<path style="fill:#497259; stroke:none;" d="M342.667 188.333L343.333 188.667L342.667 188.333M130 189L131 190L130 189M157.667 189.333L158.333 189.667L157.667 189.333M174 189L175 190L174 189M346.667 189.333L347.333 189.667L346.667 189.333M405.333 189.667L405.667 190.333L405.333 189.667M160.667 190.333L161.333 190.667L160.667 190.333M351 190L351 191L354 191L351 190M461 190L462 191L461 190M129 191L130 192L129 191M163 191L164 192L163 191M173 191L174 192L173 191M358 191L358 192L363 192L358 191M166 192L167 193L166 192M168 193L169 194L168 193M460 193L461 194L460 193z"/>
<path style="fill:#e3f953; stroke:none;" d="M128 194L128 197L129 197L128 194z"/>
<path style="fill:#497259; stroke:none;" d="M170.667 194.333L171.333 194.667L170.667 194.333M118 195L119 196L118 195M459 195L460 196L459 195M119 197L120 198L119 197M307 197L307 198L323 198L307 197M458 197L459 198L458 197M169.667 198.333L170.333 198.667L169.667 198.333z"/>
<path style="fill:#e3f953; stroke:none;" d="M171.667 198.333L172.333 198.667L171.667 198.333z"/>
<path style="fill:#497259; stroke:none;" d="M173 198L174 199L173 198M299 198L299 199L302 199L299 198z"/>
<path style="fill:#e3f953; stroke:none;" d="M302 198L303 199L302 198z"/>
<path style="fill:#fafafa; stroke:none;" d="M294 210L322 209C314.326 213.091 299.632 216.698 296.644 226.001C293.182 236.776 306.189 240.192 311.985 245.213C314.761 247.617 317.15 251.899 321.039 252.512C324.596 253.072 328.808 251.356 332 250L330 210C334.831 209.615 338.969 203.789 333.682 200.175C327.42 195.895 300.383 195.37 294.743 200.858C292.315 203.22 293.473 207.115 294 210z"/>
<path style="fill:#e3f953; stroke:none;" d="M327 198L328 199L327 198z"/>
<path style="fill:#497259; stroke:none;" d="M328 198L328 199L331 199L328 198M120 199L121 200L120 199M144 199L144 200L147 200L144 199z"/>
<path style="fill:#e3f953; stroke:none;" d="M147 199L148 200L147 199z"/>
<path style="fill:#fafafa; stroke:none;" d="M144 200L144 210L153 209C150.751 211.611 147.752 213.883 146.179 217.004C139.06 231.123 153.226 229.838 161 229.838C168.86 229.838 182.71 231.048 175.826 217.005C174.68 214.668 172.76 212.862 171 211C184.489 213.087 179.488 231.608 177.739 241C177.256 243.592 175.327 247.974 177.067 250.397C178.865 252.9 185.187 252.644 188 253L191.228 217.004L196 200C188.989 201.452 183.441 203.018 183 211L182 211C179.857 198.988 167.551 194.494 162 207C156.687 199.949 152.553 198.925 144 200z"/>
<path style="fill:#e3f953; stroke:none;" d="M153 199L154 200L153 199z"/>
<path style="fill:#497259; stroke:none;" d="M154 199L155 200L154 199M167 199L168 200L167 199z"/>
<path style="fill:#e3f953; stroke:none;" d="M175 199L176 200L175 199z"/>
<path style="fill:#497259; stroke:none;" d="M294.667 199.333L295.333 199.667L294.667 199.333z"/>
<path style="fill:#e3f953; stroke:none;" d="M296 199L297 200L296 199z"/>
<path style="fill:#497259; stroke:none;" d="M333.667 199.333L334.333 199.667L333.667 199.333M457 199L458 200L457 199M115 200L116 201L115 200z"/>
<path style="fill:#e3f953; stroke:none;" d="M117 200L118 201L117 200z"/>
<path style="fill:#497259; stroke:none;" d="M118 200L119 201L118 200M121 200L120 202L121 200M129.333 200.667L129.667 201.333L129.333 200.667M135 200L136 201L135 200z"/>
<path style="fill:#e3f953; stroke:none;" d="M136 200L137 201L136 200M138 200L139 201L138 200M156 200L157 201L156 200z"/>
<path style="fill:#497259; stroke:none;" d="M177 200L178 201L177 200M192.667 200.333L193.333 200.667L192.667 200.333M196 200L197 201L196 200M211.667 200.333L212.333 200.667L211.667 200.333z"/>
<path style="fill:#e3f953; stroke:none;" d="M213 200L213 201L216 201L213 200z"/>
<path style="fill:#497259; stroke:none;" d="M249.667 200.333L250.333 200.667L249.667 200.333z"/>
<path style="fill:#e3f953; stroke:none;" d="M251 200L252 201L251 200z"/>
<path style="fill:#fafafa; stroke:none;" d="M236 243L235 243L228 231C239.311 225.203 236.011 208.882 228 202L227 202C223.235 205.072 216.24 208.718 216 201C204.442 201.103 200.42 214.112 213.001 217.413C218.215 218.781 222.763 215.524 227 213C223.989 216.917 213.167 221.856 212.502 226.213C211.253 234.394 219.132 237.127 223.996 241.225C229.252 245.652 234.922 256.438 243.697 252.393C247.203 250.776 247.433 244.302 247.844 241C248.826 233.113 247.333 223.562 249.433 216.019C251.316 209.254 256.377 208.059 254 200L239.742 205.419L238 217L236 243z"/>
<path style="fill:#497259; stroke:none;" d="M254 200L255 201L254 200z"/>
<path style="fill:#fafafa; stroke:none;" d="M260 200C260.001 207.702 260.559 210.19 268 213C262.09 226.352 261.363 257.868 283 256.725C294.444 256.12 295.579 244.684 286 240C278.186 257.749 275.509 236.28 276.09 228C276.787 218.061 281.63 216.293 287.258 209.505C289.562 206.726 288.747 203.177 288 200C276.379 202.405 271.621 202.405 260 200z"/>
<path style="fill:#e3f953; stroke:none;" d="M262 200L263 201L262 200z"/>
<path style="fill:#497259; stroke:none;" d="M263 200L264 201L263 200M283.667 200.333L284.333 200.667L283.667 200.333z"/>
<path style="fill:#e3f953; stroke:none;" d="M285 200L286 201L285 200z"/>
<path style="fill:#497259; stroke:none;" d="M288.333 200.667L288.667 201.333L288.333 200.667M293.333 200.667L293.667 201.333L293.333 200.667M335 200L336 201L335 200z"/>
<path style="fill:#fafafa; stroke:none;" d="M341 200L347.656 219.001L344 254L357 255L359.148 216.043L364 200C353.757 202.433 351.201 202.446 341 200z"/>
<path style="fill:#497259; stroke:none;" d="M343.667 200.333L344.333 200.667L343.667 200.333M360.667 200.333L361.333 200.667L360.667 200.333M364 200L364 203L365 203L364 200M400 200L401 201L400 200z"/>
<path style="fill:#1b1b1b; stroke:none;" d="M121 201L122 202L121 201z"/>
<path style="fill:#497259; stroke:none;" d="M132 201L133 202L132 201M143 201L143 209L144 209L143 201M158 201L159 202L158 201M178 201L179 202L178 201M188.667 201.333L189.333 201.667L188.667 201.333M207.667 201.333L208.333 201.667L207.667 201.333M246 201L247 202L246 201z"/>
<path style="fill:#e3f953; stroke:none;" d="M247 201L248 202L247 201z"/>
<path style="fill:#497259; stroke:none;" d="M259 201L259 209L260 209L259 201M266.667 201.333L267.333 201.667L266.667 201.333M280.667 201.333L281.333 201.667L280.667 201.333M340 201L340 209L341 209L340 201M346 201L347 202L346 201M357.667 201.333L358.333 201.667L357.667 201.333M399 201L400 202L399 201M456 201L457 202L456 201M122 202L123 203L122 202M130 202L131 203L130 202M186 202L187 203L186 202M205 202L206 203L205 202z"/>
<path style="fill:#e3f953; stroke:none;" d="M206 202L207 203L206 202M215 202L216 203L215 202z"/>
<path style="fill:#497259; stroke:none;" d="M226 202L227 203L226 202M228 202L229 203L228 202M243 202L244 203L243 202z"/>
<path style="fill:#e3f953; stroke:none;" d="M244 202L245 203L244 202z"/>
<path style="fill:#497259; stroke:none;" d="M269 202L270 203L269 202M278 202L279 203L278 202M348 202L349 203L348 202z"/>
<path style="fill:#e3f953; stroke:none;" d="M356 202L357 203L356 202z"/>
<path style="fill:#497259; stroke:none;" d="M398 202L399 203L398 202M455 202L456 203L455 202M139.333 203.667L139.667 204.333L139.333 203.667z"/>
<path style="fill:#e3f953; stroke:none;" d="M159 203L160 204L159 203z"/>
<path style="fill:#497259; stroke:none;" d="M163 203L164 204L163 203M179 203L180 204L179 203z"/>
<path style="fill:#e3f953; stroke:none;" d="M185 203L186 204L185 203z"/>
<path style="fill:#497259; stroke:none;" d="M225 203L226 204L225 203M229 203L230 204L229 203M241 203L242 204L241 203M271 203L272 204L271 203z"/>
<path style="fill:#e3f953; stroke:none;" d="M276 203L277 204L276 203M349 203L350 204L349 203z"/>
<path style="fill:#497259; stroke:none;" d="M354 203L355 204L354 203z"/>
<path style="fill:#e3f953; stroke:none;" d="M364 203L364 206L365 206L364 203z"/>
<path style="fill:#497259; stroke:none;" d="M160 204L161 205L160 204M180 204L181 205L180 204M204 204L204 207L205 207L204 204z"/>
<path style="fill:#e3f953; stroke:none;" d="M224 204L225 205L224 204z"/>
<path style="fill:#497259; stroke:none;" d="M273.667 204.333L274.333 204.667L273.667 204.333M351 204L352 205L351 204z"/>
<path style="fill:#e3f953; stroke:none;" d="M160 205L161 206L160 205M162 205L163 206L162 205M180 205L181 206L180 205z"/>
<path style="fill:#497259; stroke:none;" d="M183 205L184 206L183 205z"/>
<path style="fill:#e3f953; stroke:none;" d="M216 205L217 206L216 205z"/>
<path style="fill:#497259; stroke:none;" d="M222 205L223 206L222 205M232 205L233 206L232 205M161 206L162 207L161 206M218.667 206.333L219.333 206.667L218.667 206.333z"/>
<path style="fill:#e3f953; stroke:none;" d="M220 206L221 207L220 206z"/>
<path style="fill:#497259; stroke:none;" d="M233 206L234 207L233 206M238 206L239 207L238 206M364 206L364 209L365 209L364 206M452 206L453 207L452 206M181 207L182 208L181 207z"/>
<path style="fill:#e3f953; stroke:none;" d="M233 207L234 208L233 207M293 207L294 208L293 207z"/>
<path style="fill:#497259; stroke:none;" d="M393 207L394 208L393 207M451 207L452 208L451 207M182 208L182 211L183 211L182 208M237.333 208.667L237.667 209.333L237.333 208.667z"/>
<path style="fill:#e3f953; stroke:none;" d="M288 208L289 209L288 208z"/>
<path style="fill:#497259; stroke:none;" d="M293.333 208.667L293.667 209.333L293.333 208.667z"/>
<path style="fill:#e3f953; stroke:none;" d="M308 208L309 209L308 208z"/>
<path style="fill:#497259; stroke:none;" d="M309 208L309 209L321 209L309 208z"/>
<path style="fill:#e3f953; stroke:none;" d="M335 208L336 209L335 208z"/>
<path style="fill:#497259; stroke:none;" d="M392 208L393 209L392 208M450 208L451 209L450 208M115.333 209.667L115.667 210.333L115.333 209.667M138.333 209.667L138.667 210.333L138.333 209.667z"/>
<path style="fill:#e3f953; stroke:none;" d="M150 209L150 210L153 210L150 209z"/>
<path style="fill:#497259; stroke:none;" d="M196.333 209.667L196.667 210.333L196.333 209.667M234 209L235 210L234 209M254.333 209.667L254.667 210.333L254.333 209.667M288 209L289 210L288 209z"/>
<path style="fill:#e3f953; stroke:none;" d="M299 209L300 210L299 209z"/>
<path style="fill:#497259; stroke:none;" d="M300 209L300 210L303 210L300 209z"/>
<path style="fill:#e3f953; stroke:none;" d="M321 209L322 210L321 209z"/>
<path style="fill:#497259; stroke:none;" d="M335 209L336 210L335 209M391 209L392 210L391 209M449 209L450 210L449 209z"/>
<path style="fill:#e3f953; stroke:none;" d="M116 210L117 211L116 210M137 210L138 211L137 210z"/>
<path style="fill:#497259; stroke:none;" d="M144.667 210.333L145.333 210.667L144.667 210.333M152 210L153 211L152 210z"/>
<path style="fill:#e3f953; stroke:none;" d="M195 210L196 211L195 210z"/>
<path style="fill:#497259; stroke:none;" d="M205.333 210.667L205.667 211.333L205.333 210.667z"/>
<path style="fill:#e3f953; stroke:none;" d="M237.333 210.667L237.667 211.333L237.333 210.667z"/>
<path style="fill:#497259; stroke:none;" d="M260 210L261 211L260 210M287 210L288 211L287 210M294.667 210.333L295.333 210.667L294.667 210.333M318 210L319 211L318 210z"/>
<path style="fill:#e3f953; stroke:none;" d="M319 210L320 211L319 210z"/>
<path style="fill:#497259; stroke:none;" d="M330 210L330 215L331 215L330 210M334 210L335 211L334 210M341 210L342 211L341 210M363 210L364 211L363 210z"/>
<path style="fill:#e3f953; stroke:none;" d="M118 211L119 212L118 211z"/>
<path style="fill:#497259; stroke:none;" d="M135 211L136 212L135 211M150 211L151 212L150 211M171 211L172 212L171 211M174.667 211.333L175.333 211.667L174.667 211.333M193 211L194 212L193 211M251 211L252 212L251 211M263 211L264 212L263 211z"/>
<path style="fill:#e3f953; stroke:none;" d="M264 211L265 212L264 211z"/>
<path style="fill:#497259; stroke:none;" d="M284 211L285 212L284 211M316 211L317 212L316 211M343 211L344 212L343 211M361 211L362 212L361 211M388 211L389 212L388 211M446 211L447 212L446 211M119 212L120 213L119 212M149 212L150 213L149 212M172 212L173 213L172 212M176 212L177 213L176 212M192 212L193 213L192 212M235 212L235 221L236 221L235 212M237 212L237 230L238 230L237 212M250 212L251 213L250 212M266 212L267 213L266 212M282 212L283 213L282 212M314 212L315 213L314 212z"/>
<path style="fill:#e3f953; stroke:none;" d="M345 212L346 213L345 212M359 212L360 213L359 212z"/>
<path style="fill:#497259; stroke:none;" d="M386 212L387 213L386 212M445 212L446 213L445 212M133.333 213.667L133.667 214.333L133.333 213.667M148 213L149 214L148 213M173 213L174 214L173 213M177 213L178 214L177 213M206 213L207 214L206 213z"/>
<path style="fill:#e3f953; stroke:none;" d="M225.667 213.333L226.333 213.667L225.667 213.333M267 213L268 214L267 213z"/>
<path style="fill:#497259; stroke:none;" d="M281 213L282 214L281 213M311 213L312 214L311 213z"/>
<path style="fill:#e3f953; stroke:none;" d="M312 213L313 214L312 213z"/>
<path style="fill:#497259; stroke:none;" d="M384 213L385 214L384 213M444 213L445 214L444 213M120 214L121 215L120 214M147 214L148 215L147 214M174 214L175 215L174 214M178 214L179 215L178 214z"/>
<path style="fill:#e3f953; stroke:none;" d="M191 214L192 215L191 214z"/>
<path style="fill:#497259; stroke:none;" d="M207 214L208 215L207 214M224 214L223 215L223 216L224 217L225 217L226 216L226 215L224 214z"/>
<path style="fill:#1b1b1b; stroke:none;" d="M225 214L226 215L225 214z"/>
<path style="fill:#e3f953; stroke:none;" d="M249 214L250 215L249 214z"/>
<path style="fill:#497259; stroke:none;" d="M280 214L281 215L280 214M309 214L310 215L309 214z"/>
<path style="fill:#e3f953; stroke:none;" d="M310 214L311 215L310 214z"/>
<path style="fill:#497259; stroke:none;" d="M346 214L347 215L346 214M382 214L383 215L382 214M146 215L147 216L146 215M175 215L176 216L175 215M191 215L191 226L192 226L191 215M208 215L209 216L208 215z"/>
<path style="fill:#1b1b1b; stroke:none;" d="M224 215L225 216L224 215z"/>
<path style="fill:#497259; stroke:none;" d="M249 215L249 229L250 229L249 215M266 215L267 216L266 215M279 215L280 216L279 215M308 215L309 216L308 215M379.667 215.333L380.333 215.667L379.667 215.333M441 215L442 216L441 215M179 216L179 227L180 227L179 216M209 216L210 217L209 216M221 216L222 217L221 216z"/>
<path style="fill:#e3f953; stroke:none;" d="M266 216L267 217L266 216z"/>
<path style="fill:#497259; stroke:none;" d="M306 216L307 217L306 216M377 216L378 217L377 216M439 216L440 217L439 216M145 217L146 218L145 217M167 217L167 222L168 222L167 217z"/>
<path style="fill:#e3f953; stroke:none;" d="M168 217L169 218L168 217z"/>
<path style="fill:#497259; stroke:none;" d="M176 217L177 218L176 217M211 217L212 218L211 217z"/>
<path style="fill:#e3f953; stroke:none;" d="M212 217L213 218L212 217M218 217L219 218L218 217z"/>
<path style="fill:#497259; stroke:none;" d="M219 217L220 218L219 217M223 217L224 218L223 217M278 217L279 218L278 217M304 217L305 218L304 217z"/>
<path style="fill:#e3f953; stroke:none;" d="M347 217L348 218L347 217z"/>
<path style="fill:#497259; stroke:none;" d="M374.667 217.333L375.333 217.667L374.667 217.333z"/>
<path style="fill:#e3f953; stroke:none;" d="M121 218L121 231L122 231L121 218M156 218L157 219L156 218z"/>
<path style="fill:#1b1b1b; stroke:none;" d="M157 218L155 225C157.661 223.122 158.177 221.037 157 218M168 218L171 224L168 218z"/>
<path style="fill:#497259; stroke:none;" d="M169 218L170 219L169 218M222 218L223 219L222 218M265.333 218.667L265.667 219.333L265.333 218.667M303 218L304 219L303 218M347 218L347 223L348 223L347 218M370.667 218.333L371.333 218.667L370.667 218.333M436 218L437 219L436 218M170 219L171 220L170 219M177.333 219.667L177.667 220.333L177.333 219.667M221 219L222 220L221 219z"/>
<path style="fill:#e3f953; stroke:none;" d="M277 219L278 220L277 219z"/>
<path style="fill:#497259; stroke:none;" d="M365 219L365 228L366 228L367 219L365 219M434 219L435 220L434 219M144 220L144 226L145 226L144 220z"/>
<path style="fill:#e3f953; stroke:none;" d="M158 220L159 221L158 220z"/>
<path style="fill:#497259; stroke:none;" d="M219 220L220 221L219 220M277 220L278 221L277 220M300 220L301 221L300 220M432 220L433 221L432 220z"/>
<path style="fill:#e3f953; stroke:none;" d="M154 221L155 222L154 221z"/>
<path style="fill:#497259; stroke:none;" d="M171 221L171 224L172 224L171 221z"/>
<path style="fill:#e3f953; stroke:none;" d="M177 221L177 224L178 224L177 221z"/>
<path style="fill:#497259; stroke:none;" d="M217 221L218 222L217 221M299 221L300 222L299 221M429 221L430 222L429 221M154 222L154 225L155 225L154 222M215 222L216 223L215 222M298 222L299 223L298 222M427 222L428 223L427 222M157 223L158 224L157 223M168 223L169 224L168 223M213 223L214 224L213 223M234 223L235 224L234 223M264 223L264 227L265 227L264 223z"/>
<path style="fill:#e3f953; stroke:none;" d="M297 223L298 224L297 223M347.333 223.667L347.667 224.333L347.333 223.667z"/>
<path style="fill:#497259; stroke:none;" d="M424 223L425 224L424 223z"/>
<path style="fill:#e3f953; stroke:none;" d="M157 224L158 225L157 224M169 224L170 225L169 224z"/>
<path style="fill:#497259; stroke:none;" d="M170 224L171 225L170 224M177.333 224.667L177.667 225.333L177.333 224.667z"/>
<path style="fill:#e3f953; stroke:none;" d="M276 224L277 225L276 224M296 224L297 225L296 224z"/>
<path style="fill:#497259; stroke:none;" d="M421.667 224.333L422.333 224.667L421.667 224.333M155 225L156 226L155 225z"/>
<path style="fill:#e3f953; stroke:none;" d="M156 225L157 226L156 225z"/>
<path style="fill:#497259; stroke:none;" d="M276 225L276 230L277 230L276 225M295 225L295 228L296 228L295 225M318 225L319 226L318 225M417.667 225.333L418.333 225.667L417.667 225.333M233 226L234 227L233 226M316 226L317 227L316 226z"/>
<path style="fill:#1b1b1b; stroke:none;" d="M309 231L309 233L318 240L319 226L309 231z"/>
<path style="fill:#497259; stroke:none;" d="M413.667 226.333L414.333 226.667L413.667 226.333M133 227L133 235L134 235L133 227M145 227L146 228L145 227M176 227L177 228L176 227z"/>
<path style="fill:#e3f953; stroke:none;" d="M179 227L180 228L179 227z"/>
<path style="fill:#497259; stroke:none;" d="M232 227L233 228L232 227z"/>
<path style="fill:#e3f953; stroke:none;" d="M264.333 227.667L264.667 228.333L264.333 227.667M314 227L315 228L314 227z"/>
<path style="fill:#497259; stroke:none;" d="M318 227L318 234L319 234L318 227M160 228L161 229L160 228z"/>
<path style="fill:#e3f953; stroke:none;" d="M161 228L162 229L161 228z"/>
<path style="fill:#497259; stroke:none;" d="M212.333 228.667L212.667 229.333L212.333 228.667M313 228L314 229L313 228M146 229L147 230L146 229M159 229L160 230L159 229z"/>
<path style="fill:#e3f953; stroke:none;" d="M162 229L163 230L162 229z"/>
<path style="fill:#497259; stroke:none;" d="M311 229L312 230L311 229M158 230L159 231L158 230M163 230L164 231L163 230z"/>
<path style="fill:#e3f953; stroke:none;" d="M173 230L174 231L173 230M237 230L238 231L237 230z"/>
<path style="fill:#497259; stroke:none;" d="M296.333 230.667L296.667 231.333L296.333 230.667M310 230L311 231L310 230M121 231L121 244L122 244L121 231M149 231L150 232L149 231z"/>
<path style="fill:#e3f953; stroke:none;" d="M150 231L151 232L150 231z"/>
<path style="fill:#497259; stroke:none;" d="M156 231L157 232L156 231M165 231L166 232L165 231M171.667 231.333L172.333 231.667L171.667 231.333M213.333 231.667L213.667 232.333L213.333 231.667z"/>
<path style="fill:#e3f953; stroke:none;" d="M228.333 231.667L228.667 232.333L228.333 231.667M308.333 231.667L308.667 232.333L308.333 231.667M358 231L358 234L359 234L358 231z"/>
<path style="fill:#497259; stroke:none;" d="M346 232L346 237L347 237L346 232M366 232L366 236L367 236L366 232M178 233L178 236L179 236L178 233z"/>
<path style="fill:#e3f953; stroke:none;" d="M229 233L230 234L229 233M297 233L298 234L297 233z"/>
<path style="fill:#497259; stroke:none;" d="M310 233L311 234L310 233z"/>
<path style="fill:#e3f953; stroke:none;" d="M190 234L191 235L190 234z"/>
<path style="fill:#497259; stroke:none;" d="M214 234L215 235L214 234z"/>
<path style="fill:#e3f953; stroke:none;" d="M230 234L231 235L230 234M264.333 234.667L264.667 235.333L264.333 234.667z"/>
<path style="fill:#497259; stroke:none;" d="M297 234L298 235L297 234M311 234L312 235L311 234z"/>
<path style="fill:#e3f953; stroke:none;" d="M318 234L318 241L319 241L318 234z"/>
<path style="fill:#497259; stroke:none;" d="M358 234L358 244L359 244L358 234M411 234L411 247L412 247L411 234z"/>
<path style="fill:#e3f953; stroke:none;" d="M133.333 235.667L133.667 236.333L133.333 235.667z"/>
<path style="fill:#497259; stroke:none;" d="M190 235L190 240L191 240L190 235M231 235L232 236L231 235M236 235L236 239L237 239L236 235z"/>
<path style="fill:#e3f953; stroke:none;" d="M248 235L249 236L248 235M298 235L299 236L298 235z"/>
<path style="fill:#497259; stroke:none;" d="M312 235L313 236L312 235z"/>
<path style="fill:#e3f953; stroke:none;" d="M178 236L179 237L178 236z"/>
<path style="fill:#497259; stroke:none;" d="M215 236L216 237L215 236M232 236L233 237L232 236M248 236L248 240L249 240L248 236M264 236L264 240L265 240L264 236M298 236L299 237L298 236z"/>
<path style="fill:#e3f953; stroke:none;" d="M313 236L314 237L313 236z"/>
<path style="fill:#497259; stroke:none;" d="M216.667 237.333L217.333 237.667L216.667 237.333M299 237L300 238L299 237M314 237L315 238L314 237z"/>
<path style="fill:#e3f953; stroke:none;" d="M346 237L347 238L346 237z"/>
<path style="fill:#497259; stroke:none;" d="M219.667 238.333L220.333 238.667L219.667 238.333M233 238L234 239L233 238M315 238L316 239L315 238M330 238L330 243L331 243L330 238M42 239L42 240L55 240L42 239z"/>
<path style="fill:#e3f953; stroke:none;" d="M222 239L223 240L222 239z"/>
<path style="fill:#497259; stroke:none;" d="M276 239L276 244L277 244L276 239M286 239L287 240L286 239M300 239L301 240L300 239z"/>
<path style="fill:#e3f953; stroke:none;" d="M301 239L302 240L301 239z"/>
<path style="fill:#497259; stroke:none;" d="M316 239L317 240L316 239M37.6667 240.333L38.3333 240.667L37.6667 240.333z"/>
<path style="fill:#27f3b0; stroke:none;" d="M31 275L21 272L21 286C29.191 289.863 29 296.992 29 305C29 319.105 29.8928 332.97 31 347C35.0358 347 45.2734 348.304 47.8827 344.4C50.4517 340.557 46.2908 327.684 45.9144 323C45.1548 313.55 42.9105 301.335 45.3179 292.015C46.3137 288.16 49.8289 287.478 51.821 284.505C53.9888 281.27 53 275.711 53 272L40 275C39.4368 270.543 38.0499 265.375 39.7423 261.004C45.3855 246.429 70.5001 254.214 81 257.671C89.9878 260.629 100.548 267.088 102 253C81.5284 247.148 63.1265 237.492 41 240.184C21.3271 242.578 21.2516 262.213 31 275z"/>
<path style="fill:#497259; stroke:none;" d="M60 240L60 241L63 241L60 240M177.333 240.667L177.667 241.333L177.333 240.667M223 240L224 241L223 240M234 240L235 241L234 240M285.333 240.667L285.667 241.333L285.333 240.667M303.667 240.333L304.333 240.667L303.667 240.333M317 240L318 241L317 240M367 240L367 243L368 243L367 240M35 241L36 242L35 241M66.6667 241.333L67.3333 241.667L66.6667 241.333M134 241L134 244L135 244L134 241M235.333 241.667L235.667 242.333L235.333 241.667M289 241L290 242L289 241M306 241L307 242L306 241M70.6667 242.333L71.3333 242.667L70.6667 242.333z"/>
<path style="fill:#e3f953; stroke:none;" d="M177 242L178 243L177 242z"/>
<path style="fill:#497259; stroke:none;" d="M265.333 242.667L265.667 243.333L265.333 242.667M308 242L309 243L308 242M345 242L345 246L346 246L345 242M31 243L32 244L31 243M74.6667 243.333L75.3333 243.667L74.6667 243.333z"/>
<path style="fill:#e3f953; stroke:none;" d="M247 243L248 244L247 243z"/>
<path style="fill:#497259; stroke:none;" d="M284 243L285 244L284 243z"/>
<path style="fill:#e3f953; stroke:none;" d="M310 243L311 244L310 243M330 243L331 244L330 243z"/>
<path style="fill:#497259; stroke:none;" d="M78 244L79 245L78 244z"/>
<path style="fill:#e3f953; stroke:none;" d="M134 244L135 245L134 244M189 244L190 245L189 244z"/>
<path style="fill:#497259; stroke:none;" d="M247.333 244.667L247.667 245.333L247.333 244.667z"/>
<path style="fill:#e3f953; stroke:none;" d="M276 244L277 245L276 244z"/>
<path style="fill:#497259; stroke:none;" d="M291 244L292 245L291 244M311 244L312 245L311 244M81 245L82 246L81 245M176.333 245.667L176.667 246.333L176.333 245.667M189 245L189 248L190 248L189 245M228 245L229 246L228 245M266 245L267 246L266 245M283 245L284 246L283 245M292 245L293 246L292 245M312 245L313 246L312 245M84 246L85 247L84 246M229 246L230 247L229 246M277 246L278 247L277 246M282 246L283 247L282 246M313 246L314 247L313 246M331 246L331 249L332 249L331 246z"/>
<path style="fill:#e3f953; stroke:none;" d="M345 246L346 247L345 246z"/>
<path style="fill:#497259; stroke:none;" d="M368 246L368 249L369 249L368 246M87 247L88 248L87 247M267 247L268 248L267 247z"/>
<path style="fill:#e3f953; stroke:none;" d="M277 247L278 248L277 247z"/>
<path style="fill:#497259; stroke:none;" d="M293.333 247.667L293.667 248.333L293.333 247.667M314 247L315 248L314 247M26 248L27 249L26 248M90 248L91 249L90 248M135 248L135 251L136 251L135 248M230 248L231 249L230 248z"/>
<path style="fill:#e3f953; stroke:none;" d="M246 248L247 249L246 248z"/>
<path style="fill:#497259; stroke:none;" d="M278 248L278 249L281 249L278 248M315 248L316 249L315 248M92 249L93 250L92 249M175 249L177 252L175 249M231 249L232 250L231 249M246 249L247 250L246 249M268 249L269 250L268 249M316 249L317 250L316 249M344 249L344 252L345 252L344 249M95 250L96 251L95 250z"/>
<path style="fill:#e3f953; stroke:none;" d="M122 250L123 251L122 250M188 250L189 251L188 250M269 250L270 251L269 250z"/>
<path style="fill:#497259; stroke:none;" d="M331 250L332 251L331 250M97 251L98 252L97 251M122 251L122 255L123 255L122 251M188.333 251.667L188.667 252.333L188.333 251.667M232 251L233 252L232 251M293 251L294 252L293 251z"/>
<path style="fill:#e3f953; stroke:none;" d="M328 251L329 252L328 251z"/>
<path style="fill:#497259; stroke:none;" d="M329 251L330 252L329 251z"/>
<path style="fill:#e3f953; stroke:none;" d="M357.333 251.667L357.667 252.333L357.333 251.667z"/>
<path style="fill:#497259; stroke:none;" d="M24 252L25 253L24 252M99 252L100 253L99 252M179 252L179 253L183 253L179 252z"/>
<path style="fill:#e3f953; stroke:none;" d="M183.667 252.333L184.333 252.667L183.667 252.333z"/>
<path style="fill:#497259; stroke:none;" d="M235.667 252.333L236.333 252.667L235.667 252.333z"/>
<path style="fill:#e3f953; stroke:none;" d="M237 252L238 253L237 252z"/>
<path style="fill:#497259; stroke:none;" d="M245 252L246 253L245 252M292 252L293 253L292 252M318 252L319 253L318 252z"/>
<path style="fill:#e3f953; stroke:none;" d="M323 252L324 253L323 252z"/>
<path style="fill:#497259; stroke:none;" d="M324 252L324 253L327 253L324 252M369 252L369 255L370 255L369 252M47 253L47 254L50 254L47 253M60 253L60 254L65 254L60 253M102.333 253.667L102.667 254.333L102.333 253.667M241 253L241 254L245 254L241 253M291 253L292 254L291 253M357 253L357 256L358 256L357 253M45 254L46 255L45 254M68.6667 254.333L69.3333 254.667L68.6667 254.333z"/>
<path style="fill:#e3f953; stroke:none;" d="M132 254L133 255L132 254z"/>
<path style="fill:#497259; stroke:none;" d="M133.667 254.333L134.333 254.667L133.667 254.333M273 254L274 255L273 254M290 254L291 255L290 254M344 254L345 255L344 254z"/>
<path style="fill:#e3f953; stroke:none;" d="M345 254L346 255L345 254z"/>
<path style="fill:#497259; stroke:none;" d="M43 255L44 256L43 255M73 255L74 256L73 255M123 255L123 256L128 256L123 255M275 255L276 256L275 255M288 255L289 256L288 255M349 255L349 256L355 256L349 255z"/>
<path style="fill:#e3f953; stroke:none;" d="M355.667 255.333L356.333 255.667L355.667 255.333z"/>
<path style="fill:#497259; stroke:none;" d="M76.6667 256.333L77.3333 256.667L76.6667 256.333M277.667 256.333L278.333 256.667L277.667 256.333z"/>
<path style="fill:#e3f953; stroke:none;" d="M279 256L280 257L279 256z"/>
<path style="fill:#497259; stroke:none;" d="M285.667 256.333L286.333 256.667L285.667 256.333M80 257L81 258L80 257M101 257L102 258L101 257M40 258L41 259L40 258M83 258L84 259L83 258M370.333 258.667L370.667 259.333L370.333 258.667M85.6667 259.333L86.3333 259.667L85.6667 259.333M100 259L101 260L100 259M39.3333 260.667L39.6667 261.333L39.3333 260.667M88 260L89 261L88 260M91 261L92 262L91 261M408.667 261.333L409.333 261.667L408.667 261.333M93 262L94 263L93 262M98 262L99 263L98 262M404.667 262.333L405.333 262.667L404.667 262.333M24 263L25 264L24 263M95 263L95 264L98 264L95 263M371.333 263.667L371.667 264.333L371.333 263.667M394 263L394 264L399 264L394 263M379 264L379 265L387 265L379 264M25 266L26 267L25 266M89 267L89 268L105 268L89 267M26 268L27 269L26 268M75 268L75 269L80 269L75 268z"/>
<path style="fill:#27f3b0; stroke:none;" d="M61 286C72.03 283.283 84.6802 281.736 96 283C86.9964 289.943 67.7651 292.998 63.6181 305.001C58.5675 319.619 76.519 324.937 83.9606 332.093C87.3599 335.362 90.3498 342.426 95.1042 343.678C99.8042 344.916 106.314 342.873 111 342L108 303C119.872 304.502 122.269 310.603 110 316C116.508 332.798 131.429 325.909 130.867 310C130.411 297.077 119.152 288.797 108 285L108 284L132 286C133.046 282.462 134.581 274.808 131.397 271.938C127.971 268.852 120.317 269.296 116 268.834C102.728 267.413 89.2701 267.691 76 268.925C71.8956 269.307 64.8708 269.084 61.5887 271.938C57.9259 275.123 59.776 282.121 61 286z"/>
<path style="fill:#497259; stroke:none;" d="M113 268L113 269L118 269L113 268M159 268L159 269L165 269L159 268z"/>
<path style="fill:#27f3b0; stroke:none;" d="M141 286C162.206 280.893 188.794 280.893 210 286C211.026 282.531 212.611 274.757 209.397 271.988C205.245 268.413 195.15 269.194 190 268.961C175.157 268.287 133.274 261.56 141 286z"/>
<path style="fill:#497259; stroke:none;" d="M185 268L185 269L192 269L185 268M320 268L320 269L326 269L320 268z"/>
<path style="fill:#27f3b0; stroke:none;" d="M304 286L342 283C333.19 291.549 310.5 293.197 306.774 307.001C302.662 322.231 320.674 326.552 328.985 333.468C332.48 336.376 335.463 342.61 340.09 343.643C345.039 344.747 351.715 342.246 356 340C351.325 321.93 353.212 303.357 354 285L360 286C361.047 282.459 362.579 274.812 359.397 271.938C350.982 264.34 327.151 268.055 317 269.285C313.527 269.706 306.505 269.538 304.179 272.589C301.61 275.958 303.303 282.244 304 286z"/>
<path style="fill:#497259; stroke:none;" d="M342 268L342 269L346 269L342 268M39 269L39 272L40 272L39 269M68 269L68 270L71 270L68 269M122 269L122 270L125 270L122 269M150 269L150 270L153 270L150 269M198 269L198 270L201 270L198 269M312 269L312 270L316 270L312 269M351.667 269.333L352.333 269.667L351.667 269.333M63.6667 270.333L64.3333 270.667L63.6667 270.333M128.667 270.333L129.333 270.667L128.667 270.333M143 270L143 271L146 271L143 270M205.667 270.333L206.333 270.667L205.667 270.333M307.667 270.333L308.333 270.667L307.667 270.333M356.667 270.333L357.333 270.667L356.667 270.333M21.6667 271.333L22.3333 271.667L21.6667 271.333M28 271L29 272L28 271M50 271L50 272L53 272L50 271M60 271L61 272L60 271M132 271L133 272L132 271M140 271L141 272L140 271M210 271L211 272L210 271M218.667 271.333L219.333 271.667L218.667 271.333M247 271L247 272L250 272L247 271M257 271L257 272L260 272L257 271M294 271L294 272L296 274L297 274L294 271M360 271L361 272L360 271M20.3333 272.667L20.6667 273.333L20.3333 272.667M24.6667 272.333L25.3333 272.667L24.6667 272.333M47 272L48 273L47 272z"/>
<path style="fill:#27f3b0; stroke:none;" d="M218 272C218 275.75 216.993 281.301 219.028 284.625C221.463 288.604 225.614 289.927 226.656 295C229.747 310.047 225.8 331.312 222 346L239.972 346.357L241.985 326L243.318 292.015L249.397 283.791L250 272C243.758 272.286 238.285 274.363 234 279L218 272z"/>
<path style="fill:#497259; stroke:none;" d="M222 272L223 273L222 272M244 272L245 273L244 272z"/>
<path style="fill:#27f3b0; stroke:none;" d="M257 272C257 282.177 257.502 286.134 268 289C260.513 308.442 259.375 354.559 292 348.671C306.626 346.031 304.502 331.409 293 326C291.624 329.305 288.33 339.011 283.225 336.824C278.763 334.913 279.051 324.997 279.004 321C278.847 307.725 279.866 288.922 296 286C296.369 284.01 296.795 282.022 296.907 279.995C297.732 265.05 283.165 277.4 276 276.975C269.539 276.592 263.73 272.308 257 272z"/>
<path style="fill:#497259; stroke:none;" d="M262.667 272.333L263.333 272.667L262.667 272.333M289.667 272.333L290.333 272.667L289.667 272.333M303 272L304 273L303 272M27 273L28 274L27 273M44 273L45 274L44 273M59 273L59 277L60 277L59 273M133 273L133 283L134 283L133 273M139 273L139 276L140 276L139 273M217 273L217 283L218 283L217 273M225 273L226 274L225 273M241 273L242 274L241 273M250 273L250 282L251 282L250 273M265.667 273.333L266.333 273.667L265.667 273.333M286 273L287 274L286 273M29 274L30 275L29 274z"/>
<path style="fill:#1b1b1b; stroke:none;" d="M30 274L31 275L30 274z"/>
<path style="fill:#497259; stroke:none;" d="M40 274L41 275L40 274M42 274L43 275L42 274M211 274L211 282L212 282L211 274M239 274L240 275L239 274M268.667 274.333L269.333 274.667L268.667 274.333M283 274L284 275L283 274M361 274L361 282L362 282L361 274M31 275L32 276L31 275M53 275L53 280L54 280L53 275M228 275L229 276L228 275M256 275L256 281L257 281L256 275M271 275L272 276L271 275M281 275L282 276L281 275M230 276L231 277L230 276M236 276L237 277L236 276M273 276L274 277L273 276M279 276L280 277L279 276M277 277L278 278L277 277M233 278L234 279L233 278M59 279L59 283L60 283L59 279M139 279L139 283L140 283L139 279M20.3333 282.667L20.6667 283.333L20.3333 282.667M92 282L92 283L95 283L92 282M75 283L75 284L80 284L75 283M95 283L96 284L95 283M112 283L112 284L117 284L112 283M159 283L159 284L166 284L159 283M184 283L184 284L192 284L184 283M296.333 283.667L296.667 284.333L296.333 283.667M303.333 283.667L303.667 284.333L303.333 283.667M321 283L321 284L326 284L321 283M340 283L342 285L342 283L340 283M52.3333 284.667L52.6667 285.333L52.3333 284.667M68 284L68 285L71 285L68 284M108 284L109 285L108 284M122 284L122 285L126 285L122 284M149 284L149 285L153 285L149 284M198 284L198 285L202 285L198 284M257.333 284.667L257.667 285.333L257.333 284.667M312 284L312 285L316 285L312 284M60 285L61 286L60 285M62.6667 285.333L63.3333 285.667L62.6667 285.333M93 285L94 286L93 285M109 285L110 286L109 285M129.667 285.333L130.333 285.667L129.667 285.333M132 285L133 286L132 285M140 285L141 286L140 285M142 285L142 286L145 286L142 285M206 285L206 286L209 286L206 285M210 285L211 286L210 285M218 285L219 286L218 285M249 285L250 286L249 285M305 285L305 286L308 286L305 285M339 285L340 286L339 285M357.667 285.333L358.333 285.667L357.667 285.333M360 285L361 286L360 285M22.6667 286.333L23.3333 286.667L22.6667 286.333M49.6667 286.333L50.3333 286.667L49.6667 286.333M90 286L91 287L90 286M112 286L113 287L112 286M220 286L221 287L220 286M247 286L248 287L247 286M259.667 286.333L260.333 286.667L259.667 286.333M292.667 286.333L293.333 286.667L292.667 286.333M336 286L337 287L336 286M369 286L369 287L396 287L369 286M47 287L48 288L47 287M88 287L89 288L88 287M114 287L115 288L114 287M171 287L170 289L171 287z"/>
<path style="fill:#27f3b0; stroke:none;" d="M196 311C195.715 324.313 184.006 329.406 173.001 322.441C162.723 315.935 155.751 302.583 153 291C138.524 293.493 142.823 303.481 147.284 314C153.577 328.837 164.343 343.63 182 343.985C205.657 344.459 220.987 305.823 197 294.711C190.447 291.676 182.441 304.192 175 305C176.535 299.647 180.677 297.03 186 296C174.74 272.371 151.184 308.057 176 317.03C179.122 318.159 182.787 318.283 186 317.442C190.01 316.392 193.014 313.718 196 311z"/>
<path style="fill:#497259; stroke:none;" d="M176 287L177 288L176 287M222 287L223 288L222 287M245 287L246 288L245 287M263 287L264 288L263 287M290 287L291 288L290 287M334 287L335 288L334 287z"/>
<path style="fill:#e3f953; stroke:none;" d="M369 287L369.285 319L371.028 329.348L384 333.827L420 332L416 287L369 287z"/>
<path style="fill:#497259; stroke:none;" d="M46 288L47 289L46 288M85.6667 288.333L86.3333 288.667L85.6667 288.333M116 288L117 289L116 288M265 288L266 289L265 288M288 288L289 289L288 288M332 288L333 289L332 288M45 289L46 290L45 289M83 289L84 290L83 289M180 289L181 290L180 289M224 289L225 290L224 289M267.333 289.667L267.667 290.333L267.333 289.667M329 289L330 290L329 289M27 290L28 291L27 290M81 290L82 291L81 290M119 290L120 291L119 290M152 290L153 291L152 290M182 290L183 291L182 290M225 290L226 291L225 290M327 290L328 291L327 290M353 290L353 298L354 298L353 290M120 291L121 292L120 291M149 291L150 292L149 291M167 291L168 292L167 291M183 291L184 292L183 291M325 291L326 292L325 291M78 292L79 293L78 292M147 292L148 293L147 292M166 292L167 293L166 292M184 292L185 293L184 292M193.667 292.333L194.333 292.667L193.667 292.333M266 292L267 293L266 292M284 292L285 293L284 292M324 292L325 293L324 292M416 292L416 298L417 298L416 292M28.3333 293.667L28.6667 294.333L28.3333 293.667M76 293L77 294L76 293M144 293L145 294L144 293M153 293L154 294L153 293M185 293L186 294L185 293M192 293L193 294L192 293M195 293L196 294L195 293M226.333 293.667L226.667 294.333L226.333 293.667M283 293L284 294L283 293M322 293L323 294L322 293M74 294L75 295L74 294M165 294L166 295L165 294M191 294L192 295L191 294M320 294L321 295L320 294M73 295L74 296L73 295M141 295L141 298L142 298L141 295M154.333 295.667L154.667 296.333L154.333 295.667M190 295L191 296L190 295M198 295L199 296L198 295M265 295L266 296L265 295M282 295L283 296L282 295M71 296L72 297L71 296M125 296L126 297L125 296M182.667 296.333L183.333 296.667L182.667 296.333M189 296L190 297L189 296M199 296L200 297L199 296M317 296L318 297L317 296M368 296L368 309L369 309L368 296M70 297L71 298L70 297M126 297L127 298L126 297M164 297L164 304L165 304L164 297M180 297L181 298L180 297M188 297L189 298L188 297M155 298L156 299L155 298M187 298L188 299L187 298M281.333 298.667L281.667 299.333L281.333 298.667M314 298L315 299L314 298M177 299L178 300L177 299M186 299L187 300L186 299M264.333 299.667L264.667 300.333L264.333 299.667M313 299L314 300L313 299M66 300L67 301L66 300M128 300L129 301L128 300M142.333 300.667L142.667 301.333L142.333 300.667M156 300L157 301L156 300M176 300L177 301L176 300M185 300L186 301L185 300M65 301L66 302L65 301M175 301L176 302L175 301M184 301L185 302L184 301M64 302L65 303L64 302M129.333 302.667L129.667 303.333L129.333 302.667M205 302L206 303L205 302M280 302L280 305L281 305L280 302M309 302L310 303L309 302M63 303L64 304L63 303M108 303L108 304L112 304L108 303M143.333 303.667L143.667 304.333L143.333 303.667M157 303L158 304L157 303M181 303L182 304L181 303M308 303L309 304L308 303M62 304L62 308L63 308L62 304M117.667 304.333L118.333 304.667L117.667 304.333M175 304L176 305L175 304M179 304L180 305L179 304M242 304L242 319L243 319L242 304M307 304L308 305L307 304M92 305L94 307L94 305L92 305M130.333 305.667L130.667 306.333L130.333 305.667M158 305L159 306L158 305M206.333 305.667L206.667 306.333L206.333 305.667M226 305L226 313L227 313L226 305M263 305L263 310L264 310L263 305M306 305L307 306L306 305M417 305L417 310L418 310L417 305M90 306L91 307L90 306z"/>
<path style="fill:#1b1b1b; stroke:none;" d="M80 313L93 326L93 306L80 313z"/>
<path style="fill:#497259; stroke:none;" d="M120.333 306.667L120.667 307.333L120.333 306.667M144.333 306.667L144.667 307.333L144.333 306.667M165.333 306.667L165.667 307.333L165.333 306.667M337 306L338 307L337 306M88 307L89 308L88 307M159 307L160 308L159 307M335 307L336 308L335 307z"/>
<path style="fill:#1b1b1b; stroke:none;" d="M324 316L336 328L337 328L338 307L324 316z"/>
<path style="fill:#497259; stroke:none;" d="M160 308L161 309L160 308M333 308L334 309L333 308M85 309L86 310L85 309M119 309L120 310L119 309M145 309L146 310L145 309M207 309L207 312L208 312L207 309M306 309L306 312L307 312L306 309M331 309L332 310L331 309M63.3333 310.667L63.6667 311.333L63.3333 310.667M118 310L119 311L118 310M161 310L162 311L161 310M167 310L168 311L167 310M279 310L279 328L280 328L279 310M330 310L331 311L330 310M82 311L83 312L82 311M117 311L118 312L117 311M195 311L196 312L195 311M328 311L329 312L328 311M337 311L337 321L338 321L337 311M81 312L82 313L81 312M116 312L117 313L116 312M146 312L147 313L146 312M194 312L195 313L194 312M327 312L328 313L327 312M45 313L45 320L46 320L45 313M115 313L116 314L115 313M163 313L164 314L163 313M193 313L194 314L193 313M325 313L326 314L325 313M64 314L65 315L64 314M80 314L81 315L80 314M113 314L114 315L113 314M130.333 314.667L130.667 315.333L130.333 314.667M147 314L148 315L147 314M192 314L193 315L192 314M307 314L308 315L307 314M324 314L325 315L324 314M111 315L112 316L111 315M172 315L173 316L172 315M190 315L191 316L190 315M323 315L324 316L323 315M65 316L66 317L65 316M83 316L84 317L83 316M148 316L149 317L148 316M174 316L175 317L174 316M418 316L418 320L419 320L418 316M84 317L85 318L84 317M166 317L167 318L166 317M176 317L177 318L176 317M186 317L187 318L186 317M195 317L196 318L195 317M308 317L309 318L308 317M326 317L327 318L326 317M66 318L67 319L66 318M85 318L86 319L85 318M110 318L111 319L110 318M129 318L130 319L129 318M167 318L168 319L167 318M327 318L328 319L327 318M86 319L87 320L86 319M111 319L112 320L111 319M168 319L169 320L168 319M263 319L263 324L264 324L263 319M309 319L310 320L309 319M328 319L329 320L328 319M353 319L353 326L354 326L353 319M67 320L68 321L67 320M87 320L88 321L87 320M128 320L129 321L128 320M194 320L195 321L194 320M225 320L225 325L226 325L225 320M369 320L369 326L370 326L369 320M88 321L89 322L88 321M112 321L113 322L112 321M171 321L172 322L171 321M193 321L194 322L193 321M310 321L311 322L310 321M68 322L69 323L68 322M89 322L90 323L89 322M113 322L114 323L113 322M127 322L128 323L127 322M151 322L152 323L151 322M172 322L173 323L172 322M192 322L193 323L192 322M108 323L108 328L109 328L108 323M114 323L115 324L114 323M126 323L127 324L126 323M174 323L175 324L174 323M191 323L192 324L191 323M207 323L207 326L208 326L207 323M311 323L312 324L311 323M71 324L72 325L71 324M115 324L116 325L115 324M152 324L153 325L152 324M176 324L177 325L176 324M189 324L190 325L189 324M312 324L313 325L312 324M74 325L75 326L74 325M91 325L92 326L91 325M116 325L117 326L116 325M179 325L179 326L183 326L179 325M184 325L184 326L188 326L184 325M293 325L294 326L293 325M313 325L314 326L313 325M334 325L335 326L334 325M419 325L419 329L420 329L419 325M29 326L29 334L30 334L29 326M46 326L46 330L47 330L46 326M76 326L77 327L76 326M92 326L93 327L92 326M153 326L154 327L153 326M316 326L317 327L316 326M335 326L336 327L335 326M78 327L79 328L78 327M119 327L120 328L119 327M122 327L123 328L122 327M154 327L155 328L154 327M264.333 327.667L264.667 328.333L264.333 327.667M292 327L293 328L292 327M296 327L297 328L296 327M319 327L320 328L319 327M206 328L207 329L206 328M297 328L298 329L297 328M321 328L322 329L321 328M81 329L82 330L81 329M291 329L292 330L291 329M298 329L299 330L298 329M323 329L324 330L323 329M82 330L83 331L82 330M156 330L157 331L156 330M205 330L206 331L205 330M224 330L224 333L225 333L224 330M325 330L326 331L325 330M371 330L372 331L371 330M83 331L84 332L83 331M157 331L158 332L157 331M241 331L241 339L242 339L241 331M265 331L266 332L265 331M290 331L291 332L290 331M326 331L327 332L326 331M354 331L354 334L355 334L354 331M373 331L374 332L373 331M84 332L85 333L84 332M158 332L159 333L158 332M204 332L205 333L204 332M300 332L301 333L300 332M376.667 332.333L377.333 332.667L376.667 332.333M417.667 332.333L418.333 332.667L417.667 332.333M85 333L86 334L85 333M109 333L109 336L110 336L109 333M280.333 333.667L280.667 334.333L280.333 333.667M289 333L290 334L289 333M329 333L330 334L329 333M380.667 333.333L381.333 333.667L380.667 333.333M411 333L411 334L415 334L411 333M47 334L47 337L48 337L47 334M86 334L87 335L86 334M203 334L204 335L203 334M266 334L267 335L266 334M330 334L331 335L330 334M385 334L385 335L392 335L385 334M399 334L399 335L407 335L399 334M87 335L88 336L87 335M202 335L203 336L202 335M288 335L289 336L288 335M302 335L303 336L302 335M331 335L332 336L331 335M162 336L163 337L162 336M267 336L268 337L267 336M281 336L282 337L281 336M287 336L288 337L287 336M332 336L333 337L332 336M163 337L164 338L163 337M223 337L223 340L224 340L223 337M282 337L283 338L282 337M286 337L287 338L286 337M303.333 337.667L303.667 338.333L303.333 337.667M333 337L334 338L333 337M355.333 337.667L355.667 338.333L355.333 337.667M89 338L90 339L89 338M268 338L269 339L268 338M90 339L91 340L90 339M110.333 339.667L110.667 340.333L110.333 339.667M166 339L167 340L166 339M198 339L199 340L198 339M269 339L270 340L269 339M48.3333 340.667L48.6667 341.333L48.3333 340.667M168 340L169 341L168 340M197 340L198 341L197 340M335 340L336 341L335 340M355 340L356 341L355 340M91 341L92 342L91 341M170 341L171 342L170 341M195 341L196 342L195 341M303 341L304 342L303 341M336 341L337 342L336 341M353 341L354 342L353 341M30 342L30 346L31 346L30 342M108 342L109 343L108 342M172 342L173 343L172 342M193 342L194 343L193 342M271 342L272 343L271 342M302 342L303 343L302 342M350.667 342.333L351.333 342.667L350.667 342.333M92 343L93 344L92 343M101 343L101 344L105 344L101 343M175.667 343.333L176.333 343.667L175.667 343.333M189.667 343.333L190.333 343.667L189.667 343.333M222.333 343.667L222.667 344.333L222.333 343.667M272 343L273 344L272 343M301 343L302 344L301 343M337 343L338 344L337 343M344 343L344 344L347 344L344 343M273 344L274 345L273 344M300 344L301 345L300 344M48 345L49 346L48 345M299 345L300 346L299 345M42 346L42 347L46 347L42 346M223 346L223 347L226 347L223 346M276 346L277 347L276 346M31 347L31 348L37 348L31 347M230 347L230 348L237 348L230 347M240 347L241 348L240 347M278 347L279 348L278 347M296 347L297 348L296 347M280.667 348.333L281.333 348.667L280.667 348.333M293.667 348.333L294.333 348.667L293.667 348.333M284 349L284 350L291 350L284 349z"/>
</svg>
